<svg width="17" height="12" viewBox="0 0 17 12" fill="none" xmlns="http://www.w3.org/2000/svg">
<path d="M16.7747 11.4841C16.7522 11.5588 16.7057 11.624 16.6424 11.6696C16.5792 11.7152 16.5027 11.7387 16.4247 11.7365C16.3805 11.7346 16.3372 11.7236 16.2974 11.7043C16.2576 11.685 16.2222 11.6578 16.1933 11.6243C16.1644 11.5908 16.1427 11.5517 16.1294 11.5095C16.1162 11.4673 16.1117 11.4228 16.1163 11.3788C16.1119 11.0683 16.1152 10.7588 16.1152 10.4351H1.53837C1.53837 10.6897 1.53943 10.9421 1.53837 11.1934C1.53718 11.2812 1.53943 11.37 1.52963 11.4567C1.52231 11.5296 1.4894 11.5975 1.43675 11.6485C1.3841 11.6994 1.31511 11.73 1.24203 11.7349C1.16691 11.7453 1.0906 11.7276 1.02766 11.6854C0.964719 11.6431 0.919549 11.5791 0.900767 11.5056C0.885149 11.4455 0.877795 11.3836 0.878908 11.3216C0.878025 9.82594 0.878025 8.33064 0.878908 6.83569C0.86459 6.46502 0.976375 6.10044 1.19601 5.80151C1.41564 5.50257 1.73014 5.28693 2.08815 5.18981C2.19413 5.15682 2.20658 5.10304 2.20658 5.01189C2.20446 4.07038 2.20115 3.12888 2.20552 2.18737C2.19303 1.78757 2.32628 1.39685 2.58045 1.08799C2.83462 0.779132 3.19238 0.573182 3.58712 0.5085C3.69962 0.491327 3.81341 0.484013 3.92718 0.486641C7.19184 0.484345 10.4568 0.483948 13.7219 0.485449C14.1244 0.467257 14.5196 0.596928 14.833 0.850014C15.1464 1.1031 15.3565 1.46211 15.4235 1.85936C15.4431 1.98714 15.4512 2.11643 15.4476 2.24566C15.4492 3.16628 15.4486 4.0869 15.4458 5.00752C15.4458 5.11072 15.4678 5.15894 15.5765 5.19299C15.8805 5.27586 16.1537 5.44599 16.3621 5.68237C16.5706 5.91874 16.7052 6.211 16.7494 6.52305C16.756 6.55153 16.766 6.58107 16.7747 6.60969V11.4841ZM1.53837 8.42395H16.0999C16.1066 8.40176 16.111 8.37894 16.1131 8.35585C16.1143 7.83363 16.1219 7.31009 16.1088 6.78893C16.1046 6.63417 16.0679 6.48202 16.0012 6.34235C15.9117 6.15688 15.7674 6.0034 15.5879 5.90269C15.4083 5.80198 15.202 5.75891 14.9972 5.77933C10.8855 5.78047 6.77312 5.78087 2.65992 5.78052C2.63475 5.78052 2.60838 5.77933 2.58308 5.78052C2.44416 5.77504 2.30561 5.79847 2.1762 5.84931C2.0468 5.90014 1.92935 5.97729 1.8313 6.07586C1.73325 6.17443 1.65673 6.29229 1.60659 6.42196C1.55644 6.55163 1.53375 6.69031 1.53996 6.8292C1.53453 7.12436 1.5389 7.41951 1.5389 7.71361L1.53837 8.42395ZM14.7876 5.11403V4.94393C14.7876 4.04309 14.7876 3.14257 14.7876 2.24235C14.8014 2.09442 14.7824 1.94525 14.7319 1.80554C14.6813 1.66582 14.6005 1.53899 14.4953 1.43414C14.39 1.32929 14.2628 1.24901 14.1229 1.19903C13.983 1.14905 13.8338 1.13062 13.6859 1.14505H3.96785C3.8199 1.13056 3.67057 1.14894 3.53055 1.19887C3.39053 1.24881 3.26327 1.32906 3.15787 1.4339C3.05247 1.53875 2.97154 1.66558 2.92087 1.80534C2.87019 1.94509 2.85102 2.09432 2.86472 2.24235V5.11072H3.73496C3.71911 4.93943 3.72093 4.76697 3.74039 4.59605C3.84902 4.10231 3.96322 3.60738 4.11464 3.12557C4.16347 2.94233 4.27128 2.78028 4.42141 2.66444C4.57154 2.54859 4.75564 2.48541 4.94526 2.48465C5.71561 2.46385 6.48702 2.46822 7.25737 2.48359C7.4823 2.49407 7.69588 2.58544 7.8588 2.74088C8.02172 2.89633 8.12301 3.10538 8.14403 3.32958C8.19062 3.92334 8.18508 4.52004 8.12747 5.11284H9.53781C9.52144 5.04654 9.51045 4.97902 9.50496 4.91095C9.50058 4.39959 9.47634 3.88598 9.50602 3.37687C9.51473 3.13242 9.6193 2.90121 9.79712 2.73324C9.97493 2.56526 10.2117 2.47401 10.4563 2.47921C11.1958 2.46491 11.9358 2.46561 12.6762 2.48133C12.8662 2.47356 13.0532 2.53011 13.2071 2.64182C13.3609 2.75354 13.4726 2.9139 13.524 3.09695C13.7841 3.73726 13.9147 4.4228 13.9082 5.1139L14.7876 5.11403ZM16.1077 9.10275H1.53837V9.74036H16.1076L16.1077 9.10275ZM5.92214 5.11946C6.31612 5.11946 6.70892 5.12066 7.10184 5.1184C7.36957 5.11734 7.49569 4.99547 7.49688 4.73104C7.50006 4.32726 7.50006 3.92453 7.49794 3.52074C7.49569 3.25407 7.37169 3.13338 7.10396 3.13232C6.43681 3.13109 5.76926 3.13109 5.10132 3.13232C5.05465 3.12594 5.00719 3.12891 4.96168 3.14105C4.91618 3.1532 4.87354 3.17429 4.83627 3.20308C4.79899 3.23187 4.76782 3.26779 4.74457 3.30875C4.72132 3.34971 4.70646 3.39489 4.70084 3.44165C4.5976 3.84668 4.4963 4.25272 4.39694 4.65977C4.37504 4.7147 4.36797 4.77442 4.37643 4.83294C4.3849 4.89146 4.40861 4.94673 4.44518 4.99319C4.48176 5.03966 4.52991 5.07568 4.5848 5.09766C4.6397 5.11964 4.69941 5.12679 4.75794 5.1184C5.14636 5.12066 5.53478 5.11946 5.92214 5.11946ZM11.7215 5.11946C12.1033 5.11946 12.4863 5.12066 12.8683 5.11946C13.1875 5.1184 13.3258 4.94618 13.2501 4.64109C13.1525 4.2449 13.0537 3.8495 12.9538 3.4549C12.9494 3.4053 12.9347 3.35717 12.9107 3.31354C12.8867 3.26991 12.8539 3.23173 12.8144 3.20141C12.7749 3.1711 12.7296 3.1493 12.6812 3.13741C12.6328 3.12552 12.5826 3.12379 12.5335 3.13232H10.5661C10.2764 3.13338 10.1554 3.2497 10.1545 3.53386C10.1513 3.92678 10.1524 4.31851 10.1545 4.7113C10.1557 4.99878 10.2737 5.1184 10.5595 5.11946C10.9468 5.12066 11.3342 5.11946 11.7215 5.11946Z" fill="black"/>
</svg>
