<svg width="162" height="43" viewBox="0 0 162 43" fill="none" xmlns="http://www.w3.org/2000/svg">
<path d="M159.361 2.11077L154.984 7.6873V7.77672L161.942 6.88401V9.91791L154.984 9.11463V9.20404L159.408 14.5569L156.505 16.1627L153.74 9.91771H153.648L150.652 16.2073L148.026 14.6015L152.404 9.15923V9.07002L145.584 9.91791V6.88401L152.357 7.73191V7.64249L148.026 2.20019L150.837 0.63905L153.694 6.8392H153.786L156.597 0.594238L159.361 2.11077Z" fill="black"/>
<path d="M2.06707 19.2554C1.35164 17.4466 0.659678 16.408 -0.00924683 16.1398V15.9388H8.36512V16.1398C7.85746 16.4974 7.76488 17.0894 8.08825 17.9154L10.3723 23.7783L11.6182 20.0597L11.3067 19.2554C10.9607 18.3846 10.6262 17.6811 10.3032 17.145C9.97984 16.6089 9.73764 16.2738 9.5766 16.1398V15.9388H17.5701V16.1398C17.0624 16.4974 16.9699 17.0894 17.2935 17.9154L19.5773 23.7783L21.2383 18.8871C21.4919 18.1053 21.5897 17.5083 21.5324 17.0948C21.4745 16.6817 21.2383 16.3632 20.8232 16.1398V15.9388H24.595V16.1398C23.9259 16.408 23.2335 17.4466 22.5187 19.2554L17.0857 32.8571H16.7053L12.3104 21.7682L7.88071 32.8571H7.50007L2.06707 19.2554Z" fill="black"/>
<path d="M28.0185 39.7248C27.7642 39.7248 27.5048 39.7023 27.2398 39.6579C26.9743 39.6127 26.7263 39.535 26.4957 39.4232L26.0113 33.393L26.2882 33.2925C26.911 34.2748 27.8913 34.7667 29.2295 34.7667C30.0369 34.7667 30.7808 34.5768 31.4615 34.1969C32.1416 33.8171 32.6209 33.3146 32.8978 32.6895L33.1744 32.053L27.8454 19.2552C27.0841 17.4464 26.3693 16.4078 25.7 16.1396V15.9387H34.0746V16.1396C33.5902 16.4747 33.509 17.0667 33.8321 17.9152L36.4275 24.2137L38.2961 18.8869C38.573 18.1051 38.6819 17.5081 38.6249 17.0946C38.5669 16.6815 38.342 16.363 37.9499 16.1396V15.9387H41.7219V16.1396C41.0523 16.4078 40.3377 17.4464 39.5765 19.2552L32.5516 36.1399C32.0437 37.3904 31.4325 38.3009 30.7175 38.8707C30.002 39.4401 29.1025 39.7248 28.0185 39.7248Z" fill="black"/>
<path d="M54.3679 15.4363C55.8904 15.4363 57.0899 15.8271 57.9665 16.6089C58.8432 17.3907 59.2816 18.4404 59.2816 19.7577V29.0713C59.2816 30.5902 59.5811 31.6173 60.1813 32.1534V32.3543H52.1529V32.1534C52.7527 31.6173 53.0526 30.5902 53.0526 29.0713V19.7577C53.0526 18.3508 52.6029 17.6473 51.7029 17.6473C51.0568 17.6473 50.5492 17.9604 50.1804 18.5855C49.8111 19.211 49.6266 20.0486 49.6266 21.0981V29.0713C49.6266 30.5902 49.9261 31.6173 50.5263 32.1534V32.3543H42.498V32.1534C43.0978 31.6173 43.3977 30.5902 43.3977 29.0713V19.1215C43.3977 18.5407 43.3286 18.0829 43.1901 17.7478C43.0519 17.4126 42.8209 17.1002 42.498 16.8096V16.6087C44.159 16.4745 45.6299 16.3128 46.9102 16.1229C48.1906 15.9334 49.0498 15.7043 49.4884 15.4361L49.7306 15.5366L49.5231 17.8483H49.5924C50.0536 17.0443 50.6997 16.4409 51.5303 16.0389C52.3607 15.6372 53.3065 15.4363 54.3679 15.4363Z" fill="black"/>
<path d="M61.8755 19.2554C61.1601 17.4466 60.4681 16.408 59.7992 16.1398V15.9388H68.1736V16.1398C67.6659 16.4974 67.5733 17.0894 67.8967 17.9154L70.1808 23.7783L71.4267 20.0597L71.1152 19.2554C70.7692 18.3846 70.4346 17.6811 70.1117 17.145C69.7883 16.6089 69.5461 16.2738 69.385 16.1398V15.9388H77.3785V16.1398C76.8709 16.4974 76.7783 17.0894 77.1019 17.9154L79.3858 23.7783L81.0468 18.8871C81.3004 18.1053 81.3981 17.5083 81.3409 17.0948C81.2829 16.6817 81.0468 16.3632 80.6317 16.1398V15.9388H84.4034V16.1398C83.7343 16.408 83.0419 17.4466 82.3271 19.2554L76.8941 32.8571H76.5137L72.1189 21.7682L67.6891 32.8571H67.3085L61.8755 19.2554Z" fill="black"/>
<path d="M92.1429 15.4364C93.9191 15.4364 95.4649 15.8168 96.78 16.5755C98.095 17.3352 99.1211 18.3792 99.86 19.7077C100.598 21.0371 100.967 22.5837 100.967 24.3478C100.967 26.0455 100.609 27.5364 99.8944 28.8205C99.179 30.1048 98.1641 31.0986 96.8493 31.8021C95.5345 32.5055 93.9652 32.8571 92.1431 32.8571C90.3204 32.8571 88.7518 32.5055 87.437 31.8021C86.1219 31.0986 85.1064 30.1048 84.3918 28.8205C83.6764 27.5361 83.319 26.0455 83.319 24.3478C83.319 22.5837 83.6878 21.0371 84.4263 19.7077C85.1643 18.3792 86.1966 17.3352 87.5233 16.5755C88.8493 15.8166 90.3893 15.4364 92.1429 15.4364ZM92.1429 16.5755C91.5661 16.5755 91.1101 16.8049 90.7758 17.2622C90.4412 17.7204 90.2104 18.5132 90.0836 19.6408C89.9568 20.7689 89.8933 22.3494 89.8933 24.3814C89.8933 26.3243 89.9566 27.8267 90.0836 28.8872C90.2102 29.9483 90.4352 30.6853 90.7586 31.0984C91.0813 31.5119 91.5425 31.7179 92.1427 31.7179C92.7423 31.7179 93.2035 31.5117 93.5268 31.0984C93.8496 30.6853 94.0745 29.9483 94.2016 28.8872C94.3282 27.8265 94.3921 26.3243 94.3921 24.3814C94.3921 22.3494 94.3284 20.7689 94.2016 19.6408C94.0748 18.5132 93.8498 17.7204 93.5268 17.2622C93.2037 16.8049 92.7425 16.5755 92.1429 16.5755Z" fill="black"/>
<path d="M111.694 15.4363C113.47 15.4363 115.016 15.8167 116.331 16.5754C117.646 17.3351 118.672 18.3792 119.411 19.7077C120.149 21.037 120.519 22.5836 120.519 24.3477C120.519 26.0454 120.161 27.5363 119.446 28.8204C118.73 30.1048 117.715 31.0986 116.401 31.802C115.086 32.5055 113.516 32.8571 111.694 32.8571C109.872 32.8571 108.303 32.5055 106.988 31.802C105.673 31.0986 104.658 30.1048 103.943 28.8204C103.228 27.5361 102.87 26.0454 102.87 24.3477C102.87 22.5836 103.239 21.037 103.978 19.7077C104.716 18.3792 105.748 17.3351 107.075 16.5754C108.401 15.8165 109.941 15.4363 111.694 15.4363ZM111.694 16.5754C111.117 16.5754 110.661 16.8049 110.327 17.2622C109.993 17.7203 109.762 18.5132 109.635 19.6408C109.508 20.7688 109.445 22.3493 109.445 24.3813C109.445 26.3243 109.508 27.8266 109.635 28.8871C109.762 29.9482 109.987 30.6853 110.31 31.0984C110.633 31.5119 111.094 31.7178 111.694 31.7178C112.294 31.7178 112.755 31.5117 113.078 31.0984C113.401 30.6853 113.626 29.9482 113.753 28.8871C113.88 27.8264 113.944 26.3243 113.944 24.3813C113.944 22.3493 113.88 20.7688 113.753 19.6408C113.626 18.5132 113.401 17.7203 113.078 17.2622C112.755 16.8049 112.294 16.5754 111.694 16.5754Z" fill="black"/>
<path d="M122.498 24.7165C122.498 22.7731 122.873 21.1098 123.623 19.7248C124.372 18.34 125.399 17.2789 126.703 16.5419C128.006 15.8053 129.465 15.4366 131.08 15.4366C132.118 15.4366 132.833 15.5485 133.225 15.7717V12.0861C133.225 11.5058 133.156 11.0475 133.018 10.7129C132.88 10.3778 132.649 10.0653 132.326 9.7748V9.57387C133.987 9.43964 135.458 9.2779 136.738 9.08802C138.018 8.89856 138.878 8.66908 139.316 8.40125L139.558 8.50171C139.535 8.72535 139.512 9.07155 139.489 9.54031C139.466 10.0091 139.455 10.501 139.455 11.0145V29.1723C139.455 29.7305 139.524 30.1828 139.662 30.529C139.801 30.8756 140.031 31.1936 140.354 31.4836V31.6845C138.693 31.8187 137.228 31.9809 135.959 32.1703C134.691 32.3598 133.825 32.5893 133.364 32.8571L133.122 32.7566L133.329 30.7132H133.26C132.96 31.3387 132.412 31.8523 131.616 32.2541C130.82 32.6562 129.926 32.8571 128.934 32.8571C127.665 32.8571 126.547 32.5165 125.578 31.8356C124.609 31.1542 123.853 30.1996 123.311 28.9712C122.769 27.7431 122.498 26.3243 122.498 24.7165ZM129.073 23.5439C129.073 25.7772 129.309 27.5026 129.782 28.72C130.255 29.9374 130.918 30.5454 131.772 30.5454C132.533 30.5454 133.018 30.0767 133.225 29.1385V17.3124C133.179 17.0894 133.035 16.9104 132.793 16.7764C132.551 16.6428 132.268 16.5754 131.945 16.5754C131.022 16.5754 130.313 17.1678 129.817 18.351C129.321 19.5351 129.073 21.2657 129.073 23.5439Z" fill="black"/>
<path d="M45.0435 38.1012H45.543V39.8278H47.7907V38.1012H48.2902V42.1764H47.7907V40.2768H45.543V42.1764H45.0435V38.1012Z" fill="black"/>
<path d="M58.8922 42.2804C58.5712 42.2804 58.2769 42.2264 58.0093 42.1187C57.7416 42.0117 57.5098 41.8627 57.3136 41.6728C57.1173 41.4829 56.9649 41.2564 56.8557 40.9938C56.7468 40.7305 56.6923 40.4456 56.6923 40.1386C56.6923 39.8322 56.7468 39.5466 56.8557 39.284C56.9649 39.0214 57.1173 38.7948 57.3136 38.6049C57.5098 38.4151 57.7416 38.266 58.0093 38.1585C58.2769 38.0516 58.571 37.9974 58.8922 37.9974C59.2132 37.9974 59.5077 38.0514 59.7751 38.1585C60.0427 38.266 60.2746 38.4151 60.4707 38.6049C60.6669 38.7948 60.8195 39.0214 60.9285 39.284C61.0374 39.5466 61.0921 39.8322 61.0921 40.1386C61.0921 40.4456 61.0374 40.7305 60.9285 40.9938C60.8193 41.2564 60.6669 41.4829 60.4707 41.6728C60.2746 41.8627 60.0425 42.0117 59.7751 42.1187C59.5075 42.2262 59.2132 42.2804 58.8922 42.2804ZM58.8922 41.8314C59.1381 41.8314 59.3628 41.787 59.5671 41.6987C59.7712 41.6103 59.9467 41.4896 60.0933 41.3362C60.2399 41.1824 60.3538 41.0033 60.4352 40.7978C60.5164 40.5929 60.5573 40.3728 60.5573 40.1386C60.5573 39.9047 60.5164 39.6848 60.4352 39.4799C60.3538 39.2744 60.2399 39.0948 60.0933 38.9416C59.9467 38.7884 59.7712 38.6675 59.5671 38.5791C59.3628 38.4907 59.1381 38.4463 58.8922 38.4463C58.6463 38.4463 58.4216 38.4907 58.2175 38.5791C58.0131 38.6675 57.8377 38.7882 57.6913 38.9416C57.5444 39.0948 57.4305 39.2744 57.3494 39.4799C57.268 39.6848 57.2273 39.9049 57.2273 40.1386C57.2273 40.3728 57.268 40.5929 57.3494 40.7978C57.4305 41.0033 57.5444 41.1824 57.6913 41.3362C57.8377 41.4894 58.0133 41.6103 58.2175 41.6987C58.4213 41.787 58.6463 41.8314 58.8922 41.8314Z" fill="black"/>
<path d="M72.6517 40.6223C72.6517 40.8447 72.6229 41.0563 72.5654 41.2558C72.5079 41.4552 72.4168 41.6307 72.292 41.7822C72.1671 41.9338 72.0037 42.0551 71.8013 42.1453C71.5989 42.2356 71.3533 42.2806 71.0639 42.2806C70.7746 42.2806 70.5289 42.2356 70.3265 42.1453C70.1241 42.0551 69.9607 41.9338 69.8359 41.7822C69.711 41.6307 69.6197 41.4552 69.5622 41.2558C69.5047 41.0563 69.4761 40.8447 69.4761 40.6223V38.1014H69.9756V40.5533C69.9756 40.7186 69.9935 40.8779 70.0292 41.0311C70.0649 41.1849 70.1244 41.3208 70.2077 41.4398C70.2908 41.5588 70.4019 41.6536 70.5405 41.7247C70.6792 41.7962 70.8538 41.8316 71.0639 41.8316C71.2738 41.8316 71.4482 41.7962 71.5873 41.7247C71.7259 41.6539 71.837 41.5588 71.9201 41.4398C72.0035 41.3208 72.0629 41.1849 72.0986 41.0311C72.1344 40.8779 72.1522 40.7186 72.1522 40.5533V38.1014H72.6517V40.6223Z" fill="black"/>
<path d="M83.277 38.8206C83.1937 38.6902 83.0828 38.5953 82.9439 38.5357C82.8051 38.4763 82.6604 38.4461 82.5099 38.4461C82.399 38.4461 82.2899 38.4599 82.1829 38.4863C82.0759 38.5134 81.9796 38.5536 81.8944 38.6072C81.8091 38.6612 81.7406 38.7323 81.6892 38.8206C81.6377 38.909 81.6119 39.0124 81.6119 39.1314C81.6119 39.2233 81.6267 39.305 81.6567 39.3759C81.6864 39.4468 81.7348 39.5112 81.8022 39.5689C81.8696 39.6266 81.9609 39.68 82.0759 39.73C82.1906 39.7798 82.3314 39.8299 82.498 39.8797C82.6606 39.9295 82.8182 39.9837 82.9708 40.0414C83.1235 40.0985 83.2583 40.1719 83.3752 40.2603C83.4921 40.3486 83.5851 40.4585 83.6546 40.5908C83.7237 40.7236 83.7586 40.8895 83.7586 41.089C83.7586 41.2922 83.7171 41.4687 83.6337 41.6184C83.5506 41.768 83.4406 41.8919 83.3039 41.9898C83.1672 42.0878 83.0096 42.1605 82.8311 42.2087C82.6526 42.2568 82.4683 42.2808 82.2782 42.2808C82.1553 42.2808 82.0324 42.2699 81.9094 42.2489C81.7865 42.2278 81.6685 42.1949 81.5557 42.1509C81.4427 42.1072 81.3367 42.0494 81.2377 41.9786C81.1385 41.9077 81.0534 41.8199 80.9819 41.7166L81.4102 41.377C81.5012 41.5267 81.628 41.6397 81.7906 41.7166C81.9531 41.7935 82.1256 41.832 82.3079 41.832C82.4149 41.832 82.523 41.8164 82.632 41.7858C82.7411 41.7551 82.8391 41.7101 82.9263 41.6505C83.0135 41.5909 83.0847 41.5171 83.1403 41.4287C83.1958 41.3404 83.2236 41.2388 83.2236 41.1234C83.2236 40.9973 83.2016 40.8943 83.1581 40.8157C83.1144 40.7369 83.0473 40.669 82.956 40.6115C82.8647 40.5537 82.7497 40.502 82.6111 40.4558C82.4724 40.4101 82.3099 40.3559 82.1234 40.2947C81.9727 40.2484 81.8341 40.1961 81.7073 40.1367C81.5805 40.0773 81.4704 40.0039 81.3774 39.9178C81.2842 39.8313 81.211 39.7273 81.1574 39.6064C81.1038 39.4855 81.0771 39.3409 81.0771 39.1718C81.0771 38.9759 81.1167 38.8052 81.1959 38.6597C81.2752 38.5136 81.3824 38.3917 81.5169 38.2937C81.6517 38.1964 81.8044 38.1224 81.9749 38.0726C82.1452 38.0228 82.3237 37.9976 82.5099 37.9976C82.7478 37.9976 82.9648 38.033 83.1609 38.1039C83.3573 38.1753 83.5325 38.2985 83.6871 38.4753L83.277 38.8206Z" fill="black"/>
<path d="M92.1848 38.1012H94.8308V38.5502H92.6842V39.8278H94.688V40.2768H92.6842V41.7275H94.938V42.1764H92.185V38.1012H92.1848Z" fill="black"/>
</svg>
