<svg width="12" height="12" viewBox="0 0 12 12" fill="none" xmlns="http://www.w3.org/2000/svg">
<path d="M11.0381 12.0083C11.035 10.7981 10.5918 9.63037 9.79109 8.72296C8.99041 7.81555 7.88697 7.23046 6.68664 7.07684C5.97148 6.97668 5.24296 7.03856 4.55494 7.25791C3.86691 7.47726 3.237 7.84846 2.71176 8.34408C1.80647 9.15301 1.23704 10.2717 1.11571 11.4797C1.09467 11.6552 1.09605 11.8318 1.08691 12.0084H0.165039V11.6629C0.173756 11.6304 0.180323 11.5973 0.184697 11.564C0.221698 10.9577 0.359973 10.3619 0.593784 9.80133C0.898161 9.04169 1.35805 8.35411 1.9439 7.78277C2.52976 7.21142 3.22863 6.76893 3.99563 6.48372C4.03564 6.46819 4.07426 6.45265 4.12773 6.43152C4.07672 6.39269 4.04222 6.36714 4.0089 6.34158C3.59762 6.03562 3.26193 5.63945 3.02763 5.18352C2.79333 4.72758 2.66664 4.224 2.6573 3.71146C2.62984 3.01482 2.82641 2.32773 3.21815 1.75103C3.66231 1.06372 4.34455 0.564574 5.13404 0.34932C5.36168 0.286017 5.59934 0.257118 5.83259 0.213867H6.29239C6.47787 0.244929 6.66669 0.261541 6.84656 0.309313C7.44564 0.439324 7.99646 0.73421 8.43684 1.16069C8.87722 1.58717 9.18964 2.12826 9.33882 2.72289C9.52274 3.3328 9.52511 3.98307 9.34564 4.5943C9.16618 5.20554 8.81264 5.75129 8.32819 6.16494C8.22931 6.25822 8.11824 6.33932 8.01366 6.42484L8.02349 6.44037C8.04463 6.4502 8.06458 6.46003 8.08571 6.46819C9.05566 6.82423 9.9153 7.42841 10.5789 8.22045C11.2424 9.01249 11.6867 9.9647 11.8674 10.9821C11.9067 11.2075 11.9296 11.4363 11.9596 11.6629V12.0083H11.0381ZM6.06141 6.11048C6.55306 6.11058 7.0337 5.96496 7.44264 5.69201C7.85157 5.41907 8.17045 5.03105 8.35899 4.57696C8.54752 4.12288 8.59727 3.6231 8.50193 3.14076C8.4066 2.65841 8.17046 2.21514 7.82335 1.86694C7.47624 1.51874 7.03372 1.28123 6.5517 1.1844C6.06969 1.08758 5.56978 1.13578 5.11515 1.32293C4.66051 1.51009 4.27153 1.82778 3.99735 2.2359C3.72316 2.64401 3.57607 3.12424 3.57465 3.61591C3.57501 4.27608 3.83688 4.90921 4.30294 5.37674C4.769 5.84426 5.40129 6.10809 6.06141 6.11048Z" fill="black"/>
</svg>
